name D:\school\WTK\thesis\model\3dpredictsim\Results\MidTarsalJoint\Fal_s1_bCst_PF_Natali2010_ls150_MT_k150_MTP_T5_ig24.mot
datacolumns 128
datarows 4
range 1.71705019 1.75139119
endheader
time	pelvis_tilt	pelvis_list	pelvis_rotation	pelvis_tx	pelvis_ty	pelvis_tz	hip_flexion_l	hip_adduction_l	hip_rotation_l	hip_flexion_r	hip_adduction_r	hip_rotation_r	knee_angle_l	knee_angle_r	ankle_angle_l	ankle_angle_r	subtalar_angle_l	subtalar_angle_r	mtj_angle_l	mtj_angle_r	mtp_angle_l	mtp_angle_r	lumbar_extension	lumbar_bending	lumbar_rotation	arm_flex_l	arm_add_l	arm_rot_l	arm_flex_r	arm_add_r	arm_rot_r	elbow_flex_l	elbow_flex_r	pro_sup_l	pro_sup_r	glut_med1_l/activation	glut_med2_l/activation	glut_med3_l/activation	glut_min1_l/activation	glut_min2_l/activation	glut_min3_l/activation	semimem_l/activation	semiten_l/activation	bifemlh_l/activation	bifemsh_l/activation	sar_l/activation	add_long_l/activation	add_brev_l/activation	add_mag1_l/activation	add_mag2_l/activation	add_mag3_l/activation	tfl_l/activation	pect_l/activation	grac_l/activation	glut_max1_l/activation	glut_max2_l/activation	glut_max3_l/activation	iliacus_l/activation	psoas_l/activation	quad_fem_l/activation	gem_l/activation	peri_l/activation	rect_fem_l/activation	vas_med_l/activation	vas_int_l/activation	vas_lat_l/activation	med_gas_l/activation	lat_gas_l/activation	soleus_l/activation	tib_post_l/activation	flex_dig_l/activation	flex_hal_l/activation	tib_ant_l/activation	per_brev_l/activation	per_long_l/activation	per_tert_l/activation	ext_dig_l/activation	ext_hal_l/activation	ercspn_l/activation	intobl_l/activation	extobl_l/activation	glut_med1_r/activation	glut_med2_r/activation	glut_med3_r/activation	glut_min1_r/activation	glut_min2_r/activation	glut_min3_r/activation	semimem_r/activation	semiten_r/activation	bifemlh_r/activation	bifemsh_r/activation	sar_r/activation	add_long_r/activation	add_brev_r/activation	add_mag1_r/activation	add_mag2_r/activation	add_mag3_r/activation	tfl_r/activation	pect_r/activation	grac_r/activation	glut_max1_r/activation	glut_max2_r/activation	glut_max3_r/activation	iliacus_r/activation	psoas_r/activation	quad_fem_r/activation	gem_r/activation	peri_r/activation	rect_fem_r/activation	vas_med_r/activation	vas_int_r/activation	vas_lat_r/activation	med_gas_r/activation	lat_gas_r/activation	soleus_r/activation	tib_post_r/activation	flex_dig_r/activation	flex_hal_r/activation	tib_ant_r/activation	per_brev_r/activation	per_long_r/activation	per_tert_r/activation	ext_dig_r/activation	ext_hal_r/activation	ercspn_r/activation	intobl_r/activation	extobl_r/activation	
          1.71705019	         -2.92850732	          2.19217884	         -5.32949983	          2.14631273	          0.91904734	          0.00186067	         29.50430603	          3.33731098	         -2.30430879	        -16.27718889	         -0.90746016	          6.70959272	        -10.42943348	         -8.21705052	          5.41539049	         -3.34513584	         -5.76308416	          6.62937447	         -0.25722245	          8.42357740	          1.02432597	          5.81850421	         -1.87578517	         -0.17390306	          2.15361974	         -5.40940231	        -13.46527859	          5.26828922	          4.68979417	        -13.44980651	         14.99478549	         17.98935434	         35.27636308	         86.51662706	         86.51662706	          0.10291095	          0.05000059	          0.05953928	          0.05000034	          0.05000047	          0.05000184	          0.23766467	          0.05971117	          0.08623490	          0.05953959	          0.05000370	          0.07741555	          0.17511680	          0.21041787	          0.14614474	          0.08808361	          0.05954086	          0.05002108	          0.12674816	          0.05954073	          0.05954063	          0.09887106	          0.05000039	          0.05000077	          0.26712880	          0.05121409	          0.05000179	          0.05000034	          0.05000129	          0.05000133	          0.05000104	          0.05953927	          0.05953937	          0.05953919	          0.05878844	          0.05002035	          0.05760062	          0.42254235	          0.28002765	          0.19962283	          0.07268609	          0.42406412	          0.05283927	          0.05953942	          0.14619272	          0.12373887	          0.31702365	          0.11183338	          0.08307851	          0.32185751	          0.20795047	          0.11970756	          0.05000407	          0.05000081	          0.05000064	          0.05625578	          0.11748097	          0.05000024	          0.05000032	          0.05000052	          0.05000161	          0.05000145	          0.33979015	          0.05000110	          0.05000125	          0.05911258	          0.05013883	          0.05000669	          0.42189223	          0.65286644	          0.05000193	          0.05008140	          0.07089747	          0.28576517	          0.05166221	          0.05107017	          0.05010863	          0.31736873	          0.43291220	          0.37041174	          0.26787996	          0.26010949	          0.32678581	          0.05000025	          0.05000357	          0.12014071	          0.05000096	          0.05000033	          0.05000120	          0.05000004	          0.05000010	          0.05000010	
          1.72849719	         -2.93017625	          2.27908818	         -5.63739683	          2.16330472	          0.91809513	          0.00167239	         28.94206742	          3.68099241	         -2.10352625	        -16.35338484	         -1.22634585	          6.51423354	        -10.48774152	         -9.76350452	          4.71028906	         -3.70452305	         -6.13894877	          7.60353922	         -0.31675585	          7.36135447	          0.99908756	          7.65227223	         -1.69038896	         -0.35855503	          2.22847998	         -6.21959811	        -13.45811242	          5.15680189	          4.48121024	        -13.45155605	         15.40062225	         17.40886870	         36.43652887	         86.51662706	         86.51662706	          0.08642317	          0.05952805	          0.05000047	          0.05956202	          0.05954068	          0.05000617	          0.19958763	          0.05014461	          0.07241876	          0.05000111	          0.05000204	          0.11974328	          0.24931783	          0.21064369	          0.15350992	          0.09069715	          0.05000184	          0.07132272	          0.10644217	          0.05000196	          0.05000147	          0.09802434	          0.07088884	          0.05809721	          0.51302467	          0.19471163	          0.13070110	          0.08442237	          0.17299916	          0.17172481	          0.14774340	          0.05000014	          0.05000027	          0.05000004	          0.05000021	          0.05000258	          0.05000144	          0.49725946	          0.26397855	          0.16764105	          0.18768514	          0.46702641	          0.05954209	          0.05000029	          0.12277030	          0.10391389	          0.26623568	          0.09391595	          0.06976810	          0.27029125	          0.17463367	          0.10052869	          0.05000937	          0.05000160	          0.05000159	          0.05000136	          0.09865945	          0.06038568	          0.06919367	          0.05001845	          0.05002243	          0.05001981	          0.28535093	          0.05478467	          0.05000832	          0.05000784	          0.05000438	          0.05000472	          0.35429840	          0.56450253	          0.05000088	          0.05000438	          0.05953929	          0.23998098	          0.05251669	          0.05998867	          0.12188887	          0.26652115	          0.36355501	          0.34553234	          0.25433268	          0.21863748	          0.29275467	          0.05000033	          0.05000774	          0.11723372	          0.05000155	          0.05000041	          0.05000162	          0.05000014	          0.07090071	          0.05245803	
          1.73994419	         -2.92821794	          2.36483876	         -5.91600011	          2.18067382	          0.91719056	          0.00149593	         28.26465618	          3.97359152	         -1.84268413	        -16.38546580	         -1.54577606	          6.31272339	        -10.96047416	        -11.38155348	          4.00124284	         -4.14772761	         -6.51566010	          8.55530083	         -0.50091257	          6.05476000	          0.99307901	          9.74504316	         -1.47909132	         -0.55338521	          2.29323509	         -7.07344089	        -13.45398335	          5.07673264	          4.18671175	        -13.45142215	         15.73649589	         16.89298699	         37.56748920	         86.51662706	         86.51662706	          0.19182569	          0.05000049	          0.14621092	          0.05001933	          0.05000156	          0.05000134	          0.18383211	          0.08278374	          0.07824620	          0.05000104	          0.05529441	          0.10055876	          0.20937363	          0.17689698	          0.12891655	          0.08876567	          0.05000306	          0.05990550	          0.08939563	          0.05000745	          0.08015356	          0.08232017	          0.05953690	          0.05897359	          0.43082981	          0.16351584	          0.10976116	          0.07089654	          0.14528195	          0.14421177	          0.12407257	          0.05744940	          0.05954725	          0.05644213	          0.05302441	          0.05000481	          0.05000933	          0.41759044	          0.25157277	          0.16665632	          0.15761498	          0.54547717	          0.05000252	          0.05000007	          0.12076823	          0.08726518	          0.30111509	          0.07886920	          0.05859037	          0.22698687	          0.14665478	          0.08442258	          0.05002138	          0.05000706	          0.05000469	          0.05000133	          0.08285360	          0.08008866	          0.05954088	          0.05953994	          0.05953765	          0.05954029	          0.23963470	          0.05952140	          0.05143748	          0.05006642	          0.05007505	          0.05952831	          0.29753555	          0.56659570	          0.05439513	          0.05001312	          0.05000106	          0.20153214	          0.12031274	          0.09935552	          0.10236448	          0.22382007	          0.30530767	          0.29378727	          0.21358718	          0.18360969	          0.24585224	          0.05000015	          0.05000228	          0.14613729	          0.05000059	          0.05000020	          0.05000083	          0.05000027	          0.05954128	          0.05954210	
          1.75139119	         -2.92400434	          2.45081594	         -6.15923702	          2.19828591	          0.91636696	          0.00132232	         27.47108499	          4.21340525	         -1.57314642	        -16.35893901	         -1.86291935	          6.11140546	        -11.42266567	        -13.07231820	          3.27623851	         -4.70212237	         -6.90681009	          9.46430490	         -0.50111300	          4.53131653	          1.03728831	         12.04788100	         -1.25479763	         -0.75933538	          2.34772903	         -7.93907898	        -13.45394143	          5.03987201	          3.82506567	        -13.45090972	         16.01272371	         16.42631764	         38.66094843	         86.51662706	         86.51662706	          0.27054029	          0.23550303	          0.28477775	          0.20493199	          0.16841945	          0.18157425	          0.15437922	          0.06952152	          0.06571003	          0.08442689	          0.05001249	          0.08444775	          0.17582873	          0.14855610	          0.10826369	          0.11672953	          0.05000266	          0.05031042	          0.09921240	          0.16802402	          0.13652171	          0.08334912	          0.05000063	          0.05000062	          0.36180395	          0.13731845	          0.14628341	          0.05953790	          0.12200578	          0.12110716	          0.10419446	          0.05000128	          0.05000860	          0.05000014	          0.05000027	          0.05000150	          0.05000168	          0.53399478	          0.33781684	          0.18992079	          0.43653876	          0.48279339	          0.20915580	          0.06659928	          0.11538644	          0.07328387	          0.28064376	          0.06623324	          0.05000039	          0.36227919	          0.12315873	          0.07089707	          0.05000639	          0.05000063	          0.05000054	          0.05000172	          0.07092539	          0.06725866	          0.05000204	          0.05000164	          0.05000291	          0.05000260	          0.20969381	          0.05002317	          0.05000175	          0.05000552	          0.05000281	          0.05000163	          0.26274299	          0.54644094	          0.05000034	          0.05000220	          0.05000246	          0.16924359	          0.10104170	          0.08344037	          0.14254685	          0.18796039	          0.25639236	          0.24671767	          0.17936725	          0.15419293	          0.20646310	          0.05000061	          0.05512922	          0.15487745	          0.05000293	          0.07040706	          0.05000182	          0.05423837	          0.05000180	          0.05000251	
